<?xml version="1.0" encoding="UTF-8"?>
<svg version="1.1" xmlns="http://www.w3.org/2000/svg" width="512" height="512">
<path d="M0 0 C0.74227844 -0.00100708 1.48455688 -0.00201416 2.24932861 -0.00305176 C79.04816251 0.0668345 153.54670255 34.81434468 207.5625 88.75 C209.02375923 90.24714981 210.48219244 91.7470642 211.9375 93.25 C214.58944587 95.91933567 217.25999901 98.5676651 219.953125 101.1953125 C225.89677319 107.02019735 231.51759049 112.89908503 236.6875 119.4375 C238.77434237 122.04605297 240.92980289 124.56771371 243.12329102 127.08569336 C257.73154548 143.97873334 257.73154548 143.97873334 257.671875 156.79296875 C256.08191257 164.27763232 250.66000865 170.09976443 245.875 175.875 C245.31135742 176.56086182 244.74771484 177.24672363 244.16699219 177.95336914 C242.43104472 180.05836295 240.686214 182.15560421 238.9375 184.25 C238.4007666 184.89404785 237.8640332 185.5380957 237.31103516 186.20166016 C231.73211559 192.87176859 226.06387135 199.30265543 219.8203125 205.3671875 C218.21193863 206.97556137 216.78316378 208.59381271 215.375 210.375 C212.78811029 213.42620324 210.00336795 215.8867986 206.96484375 218.47265625 C205.08714868 220.11880511 203.35622302 221.82735116 201.625 223.625 C197.06761946 228.24382836 191.99308382 232.19539643 186.9375 236.25 C185.83467748 237.16515038 184.73315821 238.08187308 183.6328125 239 C139.62956177 275.40759758 85.60078911 298.66353 28.9375 305.25 C28.05892334 305.353125 27.18034668 305.45625 26.27514648 305.5625 C18.15755304 306.41005334 10.02894815 306.49226575 1.875 306.5 C1.13272156 306.50100708 0.39044312 306.50201416 -0.37432861 306.50305176 C-77.17316251 306.4331655 -151.67170255 271.68565532 -205.6875 217.75 C-207.14875923 216.25285019 -208.60719244 214.7529358 -210.0625 213.25 C-212.71444587 210.58066433 -215.38499901 207.9323349 -218.078125 205.3046875 C-224.02177319 199.47980265 -229.64259049 193.60091497 -234.8125 187.0625 C-236.89934237 184.45394703 -239.05480289 181.93228629 -241.24829102 179.41430664 C-255.85654548 162.52126666 -255.85654548 162.52126666 -255.796875 149.70703125 C-254.20691257 142.22236768 -248.78500865 136.40023557 -244 130.625 C-243.43635742 129.93913818 -242.87271484 129.25327637 -242.29199219 128.54663086 C-240.55604472 126.44163705 -238.811214 124.34439579 -237.0625 122.25 C-236.5257666 121.60595215 -235.9890332 120.9619043 -235.43603516 120.29833984 C-229.85711559 113.62823141 -224.18887135 107.19734457 -217.9453125 101.1328125 C-216.33693863 99.52443863 -214.90816378 97.90618729 -213.5 96.125 C-210.91311029 93.07379676 -208.12836795 90.6132014 -205.08984375 88.02734375 C-203.21214868 86.38119489 -201.48122302 84.67264884 -199.75 82.875 C-195.19261946 78.25617164 -190.11808382 74.30460357 -185.0625 70.25 C-183.95967748 69.33484962 -182.85815821 68.41812692 -181.7578125 67.5 C-137.75456177 31.09240242 -83.72578911 7.83647 -27.0625 1.25 C-25.74463501 1.0953125 -25.74463501 1.0953125 -24.40014648 0.9375 C-16.28255304 0.08994666 -8.15394815 0.00773425 0 0 Z M-79.38769531 81.73876953 C-98.96318973 104.88872877 -108.22387104 133.00837754 -106.0625 163.25 C-104.12699786 184.96185735 -95.5219446 205.86994606 -81.0625 222.25 C-80.35222656 223.09175781 -79.64195312 223.93351563 -78.91015625 224.80078125 C-61.50508645 244.95884979 -35.59036234 257.90499559 -9.0625 260.25 C20.75136115 262.09099314 46.53259028 253.88846041 69.9375 235.25 C70.6696875 234.67378906 71.401875 234.09757813 72.15625 233.50390625 C92.4428492 216.71916048 105.0041985 190.09626035 107.9375 164.25 C109.57920491 134.88279634 102.75150062 106.69584131 82.9375 84.25 C82.22722656 83.40824219 81.51695312 82.56648438 80.78515625 81.69921875 C63.38008645 61.54115021 37.46536234 48.59500441 10.9375 46.25 C-23.15373013 44.14488116 -56.27244639 55.77031192 -79.38769531 81.73876953 Z " fill="#000000" transform="translate(255.0625,102.75)"/>
<path d="M0 0 C0.96123779 0.00684814 1.92247559 0.01369629 2.9128418 0.02075195 C14.15409499 0.2734601 23.74841454 3.21469551 33.1875 9.4375 C33.92484375 9.91703125 34.6621875 10.3965625 35.421875 10.890625 C47.39375346 19.39478694 55.60595871 33.02272318 58.1875 47.4375 C59.90621997 65.23941142 57.39353432 80.98761364 46.1875 95.4375 C36.50644937 107.07374321 23.06266413 115.23556761 7.84423828 116.65625 C-9.65934893 117.75172192 -25.00539049 114.52464513 -38.7578125 102.9609375 C-50.91568161 91.46562257 -57.68423313 77.77025293 -58.28295898 61.03466797 C-58.48452472 43.31354195 -53.288235 29.69604702 -41.09765625 16.69140625 C-29.87912709 5.62629287 -15.71254563 -0.17309141 0 0 Z " fill="#000000" transform="translate(255.8125,197.5625)"/>
</svg>
